<svg width="166" height="30" viewBox="0 0 166 30" fill="none" xmlns="http://www.w3.org/2000/svg">
<path d="M47.305 8.065L54.265 27H50.665L49.195 23.115H43.135L41.665 27H38.065L45.025 8.065H47.305ZM46.165 11.565L44.205 19.475H48.125L46.165 11.565ZM59.8203 27.42C58.0003 27.42 56.332 26.9883 54.8153 26.125C53.322 25.2617 52.132 24.0833 51.2453 22.59C50.3587 21.0967 49.9153 19.405 49.9153 17.515C49.9153 15.6017 50.3587 13.91 51.2453 12.44C52.132 10.9467 53.322 9.78 54.8153 8.94C56.3087 8.07667 57.977 7.645 59.8203 7.645C61.687 7.645 63.3553 8.07667 64.8253 8.94C66.3187 9.78 67.497 10.9467 68.3603 12.44C69.247 13.91 69.6903 15.6017 69.6903 17.515C69.6903 19.4283 69.247 21.1317 68.3603 22.625C67.4737 24.1183 66.2837 25.2967 64.7903 26.16C63.297 27 61.6403 27.42 59.8203 27.42ZM59.8203 23.745C60.9403 23.745 61.932 23.4767 62.7953 22.94C63.6587 22.4033 64.3353 21.6683 64.8253 20.735C65.3387 19.7783 65.5953 18.705 65.5953 17.515C65.5953 16.325 65.3387 15.2633 64.8253 14.33C64.3353 13.3967 63.6587 12.6617 62.7953 12.125C61.932 11.5883 60.9403 11.32 59.8203 11.32C58.7237 11.32 57.732 11.5883 56.8453 12.125C55.982 12.6617 55.2937 13.3967 54.7803 14.33C54.2903 15.2633 54.0453 16.325 54.0453 17.515C54.0453 18.705 54.2903 19.7783 54.7803 20.735C55.2937 21.6683 55.982 22.4033 56.8453 22.94C57.732 23.4767 58.7237 23.745 59.8203 23.745ZM72.1515 27V8.065H76.1065V27H72.1515ZM72.1515 5.475V0.924998H76.1065V5.475H72.1515ZM79.3306 27V8.065H83.1106V11.775L82.6556 11.285C83.1223 10.095 83.869 9.19667 84.8956 8.59C85.9223 7.96 87.1123 7.645 88.4656 7.645C89.8656 7.645 91.1023 7.94833 92.1756 8.555C93.249 9.16167 94.089 10.0017 94.6956 11.075C95.3023 12.1483 95.6056 13.385 95.6056 14.785V27H91.6856V15.835C91.6856 14.8783 91.5106 14.0733 91.1606 13.42C90.8106 12.7433 90.309 12.23 89.6556 11.88C89.0256 11.5067 88.3023 11.32 87.4856 11.32C86.669 11.32 85.934 11.5067 85.2806 11.88C84.6506 12.23 84.1606 12.7433 83.8106 13.42C83.4606 14.0967 83.2856 14.9017 83.2856 15.835V27H79.3306ZM107.189 27.42C105.369 27.42 103.735 26.9883 102.289 26.125C100.865 25.2383 99.734 24.0483 98.8939 22.555C98.0773 21.0617 97.6689 19.3817 97.6689 17.515C97.6689 15.6483 98.0889 13.9683 98.9289 12.475C99.7689 10.9817 100.9 9.80333 102.324 8.94C103.747 8.07667 105.357 7.645 107.154 7.645C108.67 7.645 110.012 7.94833 111.179 8.555C112.345 9.16167 113.267 10.0017 113.944 11.075L113.349 11.985V0.504999H117.269V27H113.524V23.15L113.979 23.885C113.325 25.0283 112.392 25.9033 111.179 26.51C109.965 27.1167 108.635 27.42 107.189 27.42ZM107.574 23.745C108.67 23.745 109.65 23.4767 110.514 22.94C111.4 22.4033 112.089 21.6683 112.579 20.735C113.092 19.7783 113.349 18.705 113.349 17.515C113.349 16.325 113.092 15.2633 112.579 14.33C112.089 13.3967 111.4 12.6617 110.514 12.125C109.65 11.5883 108.67 11.32 107.574 11.32C106.477 11.32 105.485 11.5883 104.599 12.125C103.712 12.6617 103.024 13.3967 102.534 14.33C102.044 15.2633 101.799 16.325 101.799 17.515C101.799 18.705 102.044 19.7783 102.534 20.735C103.024 21.6683 103.7 22.4033 104.564 22.94C105.45 23.4767 106.454 23.745 107.574 23.745ZM129.621 27.42C127.801 27.42 126.133 26.9883 124.616 26.125C123.123 25.2617 121.933 24.0833 121.046 22.59C120.159 21.0967 119.716 19.405 119.716 17.515C119.716 15.6017 120.159 13.91 121.046 12.44C121.933 10.9467 123.123 9.78 124.616 8.94C126.109 8.07667 127.778 7.645 129.621 7.645C131.488 7.645 133.156 8.07667 134.626 8.94C136.119 9.78 137.298 10.9467 138.161 12.44C139.048 13.91 139.491 15.6017 139.491 17.515C139.491 19.4283 139.048 21.1317 138.161 22.625C137.274 24.1183 136.084 25.2967 134.591 26.16C133.098 27 131.441 27.42 129.621 27.42ZM129.621 23.745C130.741 23.745 131.733 23.4767 132.596 22.94C133.459 22.4033 134.136 21.6683 134.626 20.735C135.139 19.7783 135.396 18.705 135.396 17.515C135.396 16.325 135.139 15.2633 134.626 14.33C134.136 13.3967 133.459 12.6617 132.596 12.125C131.733 11.5883 130.741 11.32 129.621 11.32C128.524 11.32 127.533 11.5883 126.646 12.125C125.783 12.6617 125.094 13.3967 124.581 14.33C124.091 15.2633 123.846 16.325 123.846 17.515C123.846 18.705 124.091 19.7783 124.581 20.735C125.094 21.6683 125.783 22.4033 126.646 22.94C127.533 23.4767 128.524 23.745 129.621 23.745ZM142.379 27L148.994 17.515L142.379 8.065H147.034L152.459 15.975H150.219L155.644 8.065H160.299L153.649 17.515L160.264 27H155.609L150.254 19.055H152.424L147.034 27H142.379Z" fill="white"/>
<path fill-rule="evenodd" clip-rule="evenodd" d="M5.72874 5.44879L9.13353 3.16906C9.4702 2.94365 9.90961 2.94365 10.2463 3.16906L13.6511 5.44879C13.9283 5.63442 14.0947 5.94609 14.0947 6.27973V9.38004C14.0947 9.73823 13.9031 10.0691 13.5925 10.2474L10.1877 12.2014C9.8794 12.3783 9.5004 12.3783 9.19214 12.2014L5.78735 10.2474C5.47669 10.0691 5.28511 9.73823 5.28511 9.38004V6.27973C5.28511 5.94609 5.45151 5.63442 5.72874 5.44879ZM20.5857 3.16906L17.1809 5.44879C16.9036 5.63442 16.7372 5.94609 16.7372 6.27973V9.38004C16.7372 9.73823 16.9288 10.0691 17.2395 10.2474L20.6443 12.2014C20.9525 12.3783 21.3315 12.3783 21.6398 12.2014L25.0446 10.2474C25.3552 10.0691 25.5468 9.73823 25.5468 9.38004V6.27973C25.5468 5.94609 25.3804 5.63442 25.1032 5.44879L21.6984 3.16906C21.3617 2.94365 20.9223 2.94365 20.5857 3.16906ZM15.3005 11.9786L11.8958 14.2584C11.6185 14.444 11.4521 14.7557 11.4521 15.0893V18.1896C11.4521 18.5478 11.6437 18.8786 11.9544 19.0569L15.3592 21.011C15.6674 21.1879 16.0464 21.1879 16.3547 21.011L19.7595 19.0569C20.0701 18.8786 20.2617 18.5478 20.2617 18.1896V15.0893C20.2617 14.7557 20.0953 14.444 19.8181 14.2584L16.4133 11.9786C16.0766 11.7532 15.6372 11.7532 15.3005 11.9786ZM3.84842 11.9786L0.443633 14.2584C0.166397 14.444 0 14.7557 0 15.0893V18.1896C0 18.5478 0.191576 18.8786 0.502237 19.0569L3.90703 21.011C4.21529 21.1879 4.59429 21.1879 4.90255 21.011L8.30734 19.0569C8.618 18.8786 8.80958 18.5478 8.80958 18.1896V15.0893C8.80958 14.7557 8.64318 14.444 8.36595 14.2584L4.96116 11.9786C4.62449 11.7532 4.18509 11.7532 3.84842 11.9786ZM5.72874 23.0679L9.13353 20.7882C9.4702 20.5628 9.90961 20.5628 10.2463 20.7882L13.6511 23.0679C13.9283 23.2536 14.0947 23.5652 14.0947 23.8989V26.9992C14.0947 27.3574 13.9031 27.6882 13.5925 27.8665L10.1877 29.8205C9.8794 29.9975 9.5004 29.9975 9.19214 29.8205L5.78735 27.8665C5.47669 27.6882 5.28511 27.3574 5.28511 26.9992V23.8989C5.28511 23.5652 5.45151 23.2536 5.72874 23.0679ZM20.5857 20.7882L17.1809 23.0679C16.9036 23.2536 16.7372 23.5652 16.7372 23.8989V26.9992C16.7372 27.3574 16.9288 27.6882 17.2395 27.8665L20.6443 29.8205C20.9525 29.9975 21.3315 29.9975 21.6398 29.8205L25.0446 27.8665C25.3552 27.6882 25.5468 27.3574 25.5468 26.9992V23.8989C25.5468 23.5652 25.3804 23.2536 25.1032 23.0679L21.6984 20.7882C21.3617 20.5628 20.9223 20.5628 20.5857 20.7882ZM23.3479 14.2584L26.7527 11.9786C27.0893 11.7532 27.5287 11.7532 27.8654 11.9786L31.2702 14.2584C31.5474 14.444 31.7138 14.7557 31.7138 15.0893V18.1896C31.7138 18.5478 31.5223 18.8786 31.2116 19.0569L27.8068 21.011C27.4985 21.1879 27.1195 21.1879 26.8113 21.011L23.4065 19.0569C23.0958 18.8786 22.9042 18.5478 22.9042 18.1896V15.0893C22.9042 14.7557 23.0706 14.444 23.3479 14.2584Z" fill="url(#paint0_linear_1202_381)"/>
<defs>
<linearGradient id="paint0_linear_1202_381" x1="24.2281" y1="2.82326" x2="-8.7597" y2="34.0983" gradientUnits="userSpaceOnUse">
<stop stop-color="#5E2FF4"/>
<stop offset="0.174673" stop-color="#8CA7FF"/>
<stop offset="0.395416" stop-color="#E4DAFF"/>
<stop offset="0.844385" stop-color="#C3B1FE"/>
<stop offset="1" stop-color="#5E2FF4"/>
</linearGradient>
</defs>
</svg>