<svg width="141" height="30" viewBox="0 0 141 30" fill="none" xmlns="http://www.w3.org/2000/svg">
<path d="M45.065 8.15L51.025 26H48.4L47.23 22.85H42.9L41.73 26H39.13L45.09 8.15H45.065ZM45.065 11.565L43.525 19.475H46.605L45.065 11.565ZM56.8791 26.35C55.0591 26.35 53.4474 25.9533 52.0441 25.16C50.6641 24.3667 49.5791 23.2583 48.7891 21.835C48.0224 20.4117 47.6391 18.7783 47.6391 16.935C47.6391 15.0917 48.0224 13.4583 48.7891 12.035C49.5791 10.6117 50.6641 9.50333 52.0441 8.71C53.4474 7.91667 55.0591 7.52 56.8791 7.52C58.7224 7.52 60.3341 7.91667 61.7141 8.71C63.0941 9.50333 64.1674 10.6117 64.9341 12.035C65.7241 13.4583 66.1191 15.0917 66.1191 16.935C66.1191 18.7783 65.7241 20.4117 64.9341 21.835C64.1674 23.2583 63.0941 24.3667 61.7141 25.16C60.3341 25.9533 58.7224 26.35 56.8791 26.35ZM56.8791 24.075C58.0224 24.075 59.0374 23.8067 59.9241 23.27C60.8341 22.7333 61.5424 21.9983 62.0491 21.065C62.5791 20.1083 62.8441 19.035 62.8441 17.845C62.8441 16.655 62.5791 15.5933 62.0491 14.66C61.5424 13.7267 60.8341 12.9917 59.9241 12.455C59.0374 11.9183 58.0224 11.65 56.8791 11.65C55.7591 11.65 54.7441 11.9183 53.8341 12.455C52.9241 12.9917 52.2041 13.7267 51.6741 14.66C51.1674 15.5933 50.9141 16.655 50.9141 17.845C50.9141 19.035 51.1674 20.1083 51.6741 21.065C52.2041 21.9983 52.9241 22.7333 53.8341 23.27C54.7441 23.8067 55.7591 24.075 56.8791 24.075ZM69.2503 26V8.5H71.8753V26H69.2503ZM69.2503 4.545V1.5H71.8753V4.545H69.2503ZM78.1315 26H75.5065V8.5H78.0965V9.725C79.9865 8.675 81.7949 8.15 83.5215 8.15C85.8549 8.15 87.4182 8.78 88.2115 10.04C89.0282 11.3 89.4365 13.54 89.4365 16.76V26H86.8465V16.83C86.8465 14.4033 86.6015 12.7467 86.1115 11.86C85.6449 10.95 84.6299 10.495 83.0665 10.495C82.3199 10.495 81.5265 10.6117 80.6865 10.845C79.8699 11.055 79.2399 11.265 78.7965 11.475L78.1315 11.79V26ZM106.345 0.869998V26H103.755V24.81C101.959 25.8367 100.185 26.35 98.4354 26.35C97.502 26.35 96.6854 26.2333 95.9854 26C95.2854 25.7667 94.632 25.3467 94.0254 24.74C92.7654 23.48 92.1354 21.1583 92.1354 17.775C92.1354 14.3683 92.6954 11.9183 93.8154 10.425C94.9587 8.90833 96.837 8.15 99.4504 8.15C100.804 8.15 102.239 8.30167 103.755 8.605V0.869998H106.345ZM96.0554 22.85C96.4287 23.2933 96.8254 23.5967 97.2454 23.76C97.6654 23.9233 98.202 24.005 98.8554 24.005C99.532 24.005 100.279 23.9 101.095 23.69C101.935 23.4567 102.589 23.235 103.055 23.025L103.755 22.71V10.845C102.262 10.565 100.874 10.425 99.5904 10.425C97.817 10.425 96.5804 10.9967 95.8804 12.14C95.1804 13.26 94.8304 15.01 94.8304 17.39C94.8304 20.0967 95.2387 21.9167 96.0554 22.85ZM109.261 17.215C109.261 14.0183 109.832 11.7083 110.976 10.285C112.119 8.86167 114.044 8.15 116.751 8.15C119.481 8.15 121.406 8.86167 122.526 10.285C123.669 11.7083 124.241 14.0183 124.241 17.215C124.241 20.4117 123.704 22.7333 122.631 24.18C121.557 25.6267 119.597 26.35 116.751 26.35C113.904 26.35 111.944 25.6267 110.871 24.18C109.797 22.7333 109.261 20.4117 109.261 17.215ZM111.956 17.18C111.956 19.7233 112.259 21.5083 112.866 22.535C113.496 23.5617 114.791 24.075 116.751 24.075C118.734 24.075 120.029 23.5733 120.636 22.57C121.242 21.5433 121.546 19.7467 121.546 17.18C121.546 14.6133 121.207 12.8517 120.531 11.895C119.854 10.915 118.594 10.425 116.751 10.425C114.931 10.425 113.671 10.915 112.971 11.895C112.294 12.8517 111.956 14.6133 111.956 17.18ZM124.962 8.5H127.832L132.102 15.36L136.372 8.5H139.242L133.677 17.18L139.207 26H136.337L132.102 19.175L127.832 26H124.962L130.457 17.25L124.962 8.5Z" fill="white"/>
<path fill-rule="evenodd" clip-rule="evenodd" d="M5.72874 5.44879L9.13353 3.16906C9.4702 2.94365 9.90961 2.94365 10.2463 3.16906L13.6511 5.44879C13.9283 5.63442 14.0947 5.94609 14.0947 6.27973V9.38004C14.0947 9.73823 13.9031 10.0691 13.5925 10.2474L10.1877 12.2014C9.8794 12.3783 9.5004 12.3783 9.19214 12.2014L5.78735 10.2474C5.47669 10.0691 5.28511 9.73823 5.28511 9.38004V6.27973C5.28511 5.94609 5.45151 5.63442 5.72874 5.44879ZM20.5857 3.16906L17.1809 5.44879C16.9036 5.63442 16.7372 5.94609 16.7372 6.27973V9.38004C16.7372 9.73823 16.9288 10.0691 17.2395 10.2474L20.6443 12.2014C20.9525 12.3783 21.3315 12.3783 21.6398 12.2014L25.0446 10.2474C25.3552 10.0691 25.5468 9.73823 25.5468 9.38004V6.27973C25.5468 5.94609 25.3804 5.63442 25.1032 5.44879L21.6984 3.16906C21.3617 2.94365 20.9223 2.94365 20.5857 3.16906ZM15.3005 11.9786L11.8958 14.2584C11.6185 14.444 11.4521 14.7557 11.4521 15.0893V18.1896C11.4521 18.5478 11.6437 18.8786 11.9544 19.0569L15.3592 21.011C15.6674 21.1879 16.0464 21.1879 16.3547 21.011L19.7595 19.0569C20.0701 18.8786 20.2617 18.5478 20.2617 18.1896V15.0893C20.2617 14.7557 20.0953 14.444 19.8181 14.2584L16.4133 11.9786C16.0766 11.7532 15.6372 11.7532 15.3005 11.9786ZM3.84842 11.9786L0.443633 14.2584C0.166397 14.444 0 14.7557 0 15.0893V18.1896C0 18.5478 0.191576 18.8786 0.502237 19.0569L3.90703 21.011C4.21529 21.1879 4.59429 21.1879 4.90255 21.011L8.30734 19.0569C8.618 18.8786 8.80958 18.5478 8.80958 18.1896V15.0893C8.80958 14.7557 8.64318 14.444 8.36595 14.2584L4.96116 11.9786C4.62449 11.7532 4.18509 11.7532 3.84842 11.9786ZM5.72874 23.0679L9.13353 20.7882C9.4702 20.5628 9.90961 20.5628 10.2463 20.7882L13.6511 23.0679C13.9283 23.2536 14.0947 23.5652 14.0947 23.8989V26.9992C14.0947 27.3574 13.9031 27.6882 13.5925 27.8665L10.1877 29.8205C9.8794 29.9975 9.5004 29.9975 9.19214 29.8205L5.78735 27.8665C5.47669 27.6882 5.28511 27.3574 5.28511 26.9992V23.8989C5.28511 23.5652 5.45151 23.2536 5.72874 23.0679ZM20.5857 20.7882L17.1809 23.0679C16.9036 23.2536 16.7372 23.5652 16.7372 23.8989V26.9992C16.7372 27.3574 16.9288 27.6882 17.2395 27.8665L20.6443 29.8205C20.9525 29.9975 21.3315 29.9975 21.6398 29.8205L25.0446 27.8665C25.3552 27.6882 25.5468 27.3574 25.5468 26.9992V23.8989C25.5468 23.5652 25.3804 23.2536 25.1032 23.0679L21.6984 20.7882C21.3617 20.5628 20.9223 20.5628 20.5857 20.7882ZM23.3479 14.2584L26.7527 11.9786C27.0893 11.7532 27.5287 11.7532 27.8654 11.9786L31.2702 14.2584C31.5474 14.444 31.7138 14.7557 31.7138 15.0893V18.1896C31.7138 18.5478 31.5223 18.8786 31.2116 19.0569L27.8068 21.011C27.4985 21.1879 27.1195 21.1879 26.8113 21.011L23.4065 19.0569C23.0958 18.8786 22.9042 18.5478 22.9042 18.1896V15.0893C22.9042 14.7557 23.0706 14.444 23.3479 14.2584Z" fill="url(#paint0_linear_1202_403)"/>
<defs>
<linearGradient id="paint0_linear_1202_403" x1="0" y1="16.4766" x2="31.7138" y2="16.4766" gradientUnits="userSpaceOnUse">
<stop stop-color="#45ACAB"/>
<stop offset="1" stop-color="#4788AC"/>
</linearGradient>
</defs>
</svg>